<?xml version="1.0" encoding="UTF-8"?>
<svg xmlns="http://www.w3.org/2000/svg" viewBox="0 0 128 128" width="128" height="128">
  <defs>
    <linearGradient id="bg" x1="0" y1="0" x2="0" y2="1">
      <stop offset="0%" stop-color="#3c6eb4"/>
      <stop offset="100%" stop-color="#1f3a6b"/>
    </linearGradient>
    <linearGradient id="wrench" x1="0" y1="0" x2="1" y2="1">
      <stop offset="0%" stop-color="#f5f5f5"/>
      <stop offset="100%" stop-color="#bdbdbd"/>
    </linearGradient>
  </defs>
  <rect x="4" y="4" width="120" height="120" rx="22" ry="22" fill="url(#bg)"/>
  <path d="M88 28a18 18 0 0 0-16.6 24.9L34 90.3a8 8 0 0 0 0 11.3l2.4 2.4a8 8 0 0 0 11.3 0l37.4-37.4A18 18 0 1 0 88 28zm0 26a8 8 0 1 1 0-16 8 8 0 0 1 0 16z"
        fill="url(#wrench)" stroke="#1a2840" stroke-width="2" stroke-linejoin="round"/>
  <text x="64" y="118" text-anchor="middle"
        font-family="Inter, Noto Sans, sans-serif" font-size="14" font-weight="600"
        fill="#e3eefc" letter-spacing="1">FORGE</text>
</svg>
